<svg width="1200" height="630" viewBox="0 0 1200 630" fill="none" xmlns="http://www.w3.org/2000/svg">
  <defs>
    <linearGradient id="lg" x1="360" y1="120" x2="840" y2="510" gradientUnits="userSpaceOnUse">
      <stop stop-color="#00D1FF"/>
      <stop offset="1" stop-color="#7A2CF6"/>
    </linearGradient>
  </defs>
  <rect width="1200" height="630" fill="#ffffff"/>
  <!-- Logo mark (scaled up) -->
  <g transform="translate(290,140) scale(2.2)">
    <path d="M64 56c32 36 80 46 112 72 24 20 36 54 18 94-24 54-118 42-138-26 26 22 70 22 78 8 9-16-26-36-58-48C46 138 36 99 64 56Z" fill="url(#lg)"/>
    <path d="M68 164c21 20 59 18 58 32-1 9-25 12-50-6-10-7-17-16-24-42 5 5 10 10 16 16Z" fill="url(#lg)"/>
  </g>
  <!-- Brand text -->
  <text x="630" y="245" font-family="Inter, system-ui, -apple-system, Segoe UI, Roboto, Helvetica, Arial, sans-serif" font-size="84" font-weight="800" fill="#111827">LuckyGlide</text>
  <text x="630" y="310" font-family="Inter, system-ui, -apple-system, Segoe UI, Roboto, Helvetica, Arial, sans-serif" font-size="32" fill="#6B7280">떠나기 좋은 날짜 찾기</text>
</svg>

